<svg xmlns="http://www.w3.org/2000/svg" viewBox="0 0 920 420" aria-labelledby="title desc" role="img">
<title id="title">Shock-interface sketch</title>
<desc id="desc">A restrained line sketch representing shock waves, interface instability and measurement field.</desc>
<defs>
  <linearGradient id="wave" x1="0" x2="1"><stop offset="0" stop-color="#a7323e"/><stop offset=".52" stop-color="#b89243"/><stop offset="1" stop-color="#1d5a90"/></linearGradient>
  <pattern id="grid" width="38" height="38" patternUnits="userSpaceOnUse"><path d="M38 0H0V38" fill="none" stroke="#dfe6ee" stroke-width="1"/></pattern>
</defs>
<rect width="920" height="420" rx="32" fill="#fbfcfd"/>
<rect x="26" y="26" width="868" height="368" rx="24" fill="url(#grid)" opacity=".72"/>
<g opacity=".98" fill="none" stroke-linecap="round" stroke-linejoin="round">
  <path d="M120 72 L340 210 L120 348 Z" stroke="#a7323e" stroke-width="7"/>
  <path d="M332 210 C384 100 443 320 504 210 S630 110 700 210 S806 316 864 210" stroke="url(#wave)" stroke-width="7"/>
  <path d="M338 276 C410 202 476 326 548 268 S690 182 864 278" stroke="#b89243" stroke-width="5" opacity=".86"/>
  <path d="M100 210 H860" stroke="#bec9d4" stroke-width="2" stroke-dasharray="9 11"/>
  <circle cx="595" cy="210" r="72" stroke="#256b72" stroke-width="4" fill="#eef6f5" opacity=".82"/>
  <circle cx="595" cy="210" r="132" stroke="#8ea1b3" stroke-width="2" opacity=".6"/>
</g>
<g fill="#1d5a90" opacity=".45">
  <circle cx="402" cy="112" r="4"/><circle cx="455" cy="315" r="3"/><circle cx="748" cy="118" r="4"/><circle cx="808" cy="320" r="3"/>
</g>
</svg>