<svg xmlns="http://www.w3.org/2000/svg" viewBox="0 0 720 360"><defs><radialGradient id="g" cx="45%" cy="50%"><stop stop-color="#30363b"/><stop offset=".62" stop-color="#12161a"/><stop offset="1" stop-color="#030405"/></radialGradient><filter id="n"><feTurbulence type="fractalNoise" baseFrequency=".045" numOctaves="3" seed="27"/><feColorMatrix values="1 0 0 0 0 1 0 0 0 0 1 0 0 0 0 0 0 0 .18 0"/></filter></defs><rect width="720" height="360" fill="url(#g)"/><rect width="720" height="360" filter="url(#n)"/><path d="M0 150c104-12 189-12 282 0 96 12 158 12 438 0" fill="none" stroke="#edf0f2" stroke-width="4"/><path d="M0 168c104-12 189-12 282 0 96 12 158 12 438 0" fill="none" stroke="#030405" stroke-width="10"/><g fill="#dde2e5" opacity=".68"><circle cx="365" cy="106" r="4"/><circle cx="378" cy="127" r="5"/><circle cx="350" cy="146" r="3"/><circle cx="388" cy="165" r="4"/><circle cx="357" cy="191" r="5"/><circle cx="382" cy="217" r="3"/><circle cx="365" cy="245" r="5"/></g><g fill="#040506"><circle cx="377" cy="106" r="6"/><circle cx="390" cy="127" r="7"/><circle cx="362" cy="146" r="5"/><circle cx="400" cy="165" r="6"/><circle cx="369" cy="191" r="7"/><circle cx="394" cy="217" r="5"/><circle cx="377" cy="245" r="7"/></g><path d="M440 20c-50 88-50 232 0 320" fill="none" stroke="#f2f4f5" stroke-width="3" opacity=".7"/></svg>