<svg xmlns="http://www.w3.org/2000/svg" viewBox="0 0 720 360"><defs><linearGradient id="g" x1="0" y1="0" x2="1" y2="1"><stop stop-color="#050607"/><stop offset=".5" stop-color="#343a40"/><stop offset="1" stop-color="#030405"/></linearGradient><filter id="n"><feTurbulence baseFrequency=".012 .055" numOctaves="3" seed="33"/><feColorMatrix values="1 0 0 0 0 1 0 0 0 0 1 0 0 0 0 0 0 0 .22 0"/></filter></defs><rect width="720" height="360" fill="url(#g)"/><rect width="720" height="360" filter="url(#n)"/><path d="M80 0c80 58 32 121 90 180s15 122 92 180" fill="none" stroke="#eef1f3" stroke-width="6"/><path d="M102 0c80 58 32 121 90 180s15 122 92 180" fill="none" stroke="#020304" stroke-width="13"/><path d="M490 10c-66 47-77 103-28 150 50 48 38 116-30 190" fill="none" stroke="#e2e7ea" stroke-width="4" opacity=".8"/><path d="M508 10c-66 47-77 103-28 150 50 48 38 116-30 190" fill="none" stroke="#020304" stroke-width="10"/><path d="M300 90c45 40 45 140 0 180M360 72c65 51 65 165 0 216" fill="none" stroke="#cbd2d7" stroke-width="2" opacity=".55"/></svg>