<svg xmlns="http://www.w3.org/2000/svg" viewBox="0 0 720 360"><defs><linearGradient id="g" y1="0" y2="1"><stop stop-color="#040506"/><stop offset=".48" stop-color="#24292e"/><stop offset="1" stop-color="#060708"/></linearGradient><filter id="n"><feTurbulence type="fractalNoise" baseFrequency=".06 .015" numOctaves="2" seed="4"/><feColorMatrix values="1 0 0 0 0 1 0 0 0 0 1 0 0 0 0 0 0 0 .19 0"/></filter></defs><rect width="720" height="360" fill="url(#g)"/><rect width="720" height="360" filter="url(#n)"/><circle cx="430" cy="180" r="64" fill="#0b0d10" stroke="#d9dee2" stroke-width="3"/><path d="M0 92c110 10 178 21 260 52 71 27 104 34 170 36" fill="none" stroke="#eef1f3" stroke-width="6"/><path d="M0 108c110 10 178 21 260 52 71 27 104 34 170 36" fill="none" stroke="#030405" stroke-width="12"/><path d="M430 116c77-4 134 13 212 61M430 244c77 4 134-13 212-61" fill="none" stroke="#dfe4e8" stroke-width="3" opacity=".7"/><path d="M447 116c77-4 134 13 212 61M447 244c77 4 134-13 212-61" fill="none" stroke="#020304" stroke-width="8" opacity=".8"/></svg>