<svg xmlns="http://www.w3.org/2000/svg" viewBox="0 0 720 360"><defs><linearGradient id="g"><stop stop-color="#050607"/><stop offset=".5" stop-color="#2c3237"/><stop offset="1" stop-color="#060708"/></linearGradient><filter id="n"><feTurbulence baseFrequency=".018 .09" numOctaves="2" seed="12"/><feColorMatrix values="1 0 0 0 0 1 0 0 0 0 1 0 0 0 0 0 0 0 .23 0"/></filter></defs><rect width="720" height="360" fill="url(#g)"/><rect width="720" height="360" filter="url(#n)"/><path d="M190 0c35 65-38 114 8 178s-29 116 15 182" fill="none" stroke="#f0f2f4" stroke-width="7"/><path d="M215 0c35 65-38 114 8 178s-29 116 15 182" fill="none" stroke="#020304" stroke-width="13"/><path d="M470 0c-45 70 42 110-12 178s38 118-16 182" fill="none" stroke="#e9ecef" stroke-width="5" opacity=".85"/><path d="M490 0c-45 70 42 110-12 178s38 118-16 182" fill="none" stroke="#020304" stroke-width="11"/><g opacity=".55"><path d="M270 78c50 25 50 179 0 204M390 78c-50 25-50 179 0 204" fill="none" stroke="#cfd5da" stroke-width="3"/></g></svg>